<mxfile host="app.diagrams.net" modified="2022-12-24T09:27:12.569Z" agent="5.0 (Windows NT 10.0; Win64; x64) AppleWebKit/537.36 (KHTML, like Gecko) Chrome/108.0.0.0 Safari/537.36" version="20.7.4" etag="ifj7fOYXpDEZfAYdmk1L" type="github">
  <diagram id="hLACzCO3HccSahNuZ1n-" name="Page-1">
    <mxGraphModel dx="1050" dy="573" grid="1" gridSize="10" guides="1" tooltips="1" connect="1" arrows="1" fold="1" page="1" pageScale="1" pageWidth="1100" pageHeight="850" math="0" shadow="0">
      <root>
        <mxCell id="0" />
        <mxCell id="1" parent="0" />
        <mxCell id="i6ZfzEf9qO1Lxu_JYFvA-21" style="edgeStyle=orthogonalEdgeStyle;rounded=0;orthogonalLoop=1;jettySize=auto;html=1;exitX=0.75;exitY=0.25;exitDx=0;exitDy=0;exitPerimeter=0;entryX=-0.01;entryY=0.368;entryDx=0;entryDy=0;entryPerimeter=0;fontSize=12;" edge="1" parent="1" source="i6ZfzEf9qO1Lxu_JYFvA-1" target="i6ZfzEf9qO1Lxu_JYFvA-7">
          <mxGeometry relative="1" as="geometry" />
        </mxCell>
        <mxCell id="i6ZfzEf9qO1Lxu_JYFvA-1" value="" style="shape=actor;whiteSpace=wrap;html=1;" vertex="1" parent="1">
          <mxGeometry x="60" y="250" width="40" height="60" as="geometry" />
        </mxCell>
        <mxCell id="i6ZfzEf9qO1Lxu_JYFvA-2" value="" style="endArrow=none;dashed=1;html=1;rounded=0;" edge="1" parent="1">
          <mxGeometry width="50" height="50" relative="1" as="geometry">
            <mxPoint x="160" y="80" as="sourcePoint" />
            <mxPoint x="160" y="80" as="targetPoint" />
            <Array as="points">
              <mxPoint x="840" y="80" />
              <mxPoint x="840" y="560" />
              <mxPoint x="160" y="560" />
            </Array>
          </mxGeometry>
        </mxCell>
        <mxCell id="i6ZfzEf9qO1Lxu_JYFvA-3" value="&lt;b&gt;&lt;font style=&quot;font-size: 16px;&quot;&gt;User&lt;/font&gt;&lt;/b&gt;" style="text;html=1;align=center;verticalAlign=middle;resizable=0;points=[];autosize=1;strokeColor=none;fillColor=none;" vertex="1" parent="1">
          <mxGeometry x="50" y="315" width="60" height="30" as="geometry" />
        </mxCell>
        <mxCell id="i6ZfzEf9qO1Lxu_JYFvA-22" style="edgeStyle=orthogonalEdgeStyle;rounded=0;orthogonalLoop=1;jettySize=auto;html=1;exitX=0.003;exitY=0.628;exitDx=0;exitDy=0;entryX=1;entryY=0.75;entryDx=0;entryDy=0;fontSize=12;exitPerimeter=0;" edge="1" parent="1" source="i6ZfzEf9qO1Lxu_JYFvA-7" target="i6ZfzEf9qO1Lxu_JYFvA-1">
          <mxGeometry relative="1" as="geometry" />
        </mxCell>
        <mxCell id="i6ZfzEf9qO1Lxu_JYFvA-42" style="edgeStyle=orthogonalEdgeStyle;rounded=0;orthogonalLoop=1;jettySize=auto;html=1;exitX=1;exitY=0.25;exitDx=0;exitDy=0;entryX=0.049;entryY=0.355;entryDx=0;entryDy=0;entryPerimeter=0;fontSize=12;" edge="1" parent="1" source="i6ZfzEf9qO1Lxu_JYFvA-7" target="i6ZfzEf9qO1Lxu_JYFvA-9">
          <mxGeometry relative="1" as="geometry" />
        </mxCell>
        <mxCell id="i6ZfzEf9qO1Lxu_JYFvA-7" value="&lt;blockquote style=&quot;margin: 0 0 0 40px; border: none; padding: 0px;&quot;&gt;&lt;/blockquote&gt;&lt;b style=&quot;background-color: initial; font-size: 16px;&quot;&gt;&lt;div style=&quot;text-align: center;&quot;&gt;&lt;b style=&quot;background-color: initial;&quot;&gt;&lt;font style=&quot;font-size: 16px;&quot;&gt;Front End&lt;/font&gt;&lt;/b&gt;&lt;/div&gt;&lt;/b&gt;&lt;div style=&quot;text-align: center;&quot;&gt;&lt;span style=&quot;background-color: initial;&quot;&gt;&lt;font style=&quot;font-size: 12px;&quot;&gt;&lt;br&gt;&lt;/font&gt;&lt;/span&gt;&lt;/div&gt;&lt;div style=&quot;text-align: center;&quot;&gt;&lt;span style=&quot;background-color: initial;&quot;&gt;&lt;font style=&quot;font-size: 12px;&quot;&gt;(Web / Mobile / Watches / LEDs)&lt;/font&gt;&lt;/span&gt;&lt;/div&gt;" style="rounded=0;whiteSpace=wrap;html=1;align=left;" vertex="1" parent="1">
          <mxGeometry x="180" y="220" width="120" height="120" as="geometry" />
        </mxCell>
        <mxCell id="i6ZfzEf9qO1Lxu_JYFvA-8" value="&lt;br&gt;&lt;span style=&quot;color: rgb(0, 0, 0); font-family: Helvetica; font-size: 16px; font-style: normal; font-variant-ligatures: normal; font-variant-caps: normal; font-weight: 700; letter-spacing: normal; orphans: 2; text-align: center; text-indent: 0px; text-transform: none; widows: 2; word-spacing: 0px; -webkit-text-stroke-width: 0px; background-color: rgb(251, 251, 251); text-decoration-thickness: initial; text-decoration-style: initial; text-decoration-color: initial; float: none; display: inline !important;&quot;&gt;Internet&lt;br&gt;LAN&lt;br&gt;&lt;/span&gt;&lt;br&gt;&lt;br&gt;" style="ellipse;shape=cloud;whiteSpace=wrap;html=1;direction=south;" vertex="1" parent="1">
          <mxGeometry x="340" y="180" width="80" height="200" as="geometry" />
        </mxCell>
        <mxCell id="i6ZfzEf9qO1Lxu_JYFvA-9" value="" style="verticalLabelPosition=bottom;verticalAlign=top;html=1;shape=mxgraph.basic.patternFillRect;fillStyle=diagGrid;step=5;fillStrokeWidth=0.2;fillStrokeColor=#dddddd;" vertex="1" parent="1">
          <mxGeometry x="440" y="100" width="380" height="440" as="geometry" />
        </mxCell>
        <mxCell id="i6ZfzEf9qO1Lxu_JYFvA-25" style="edgeStyle=orthogonalEdgeStyle;rounded=0;orthogonalLoop=1;jettySize=auto;html=1;exitX=0.001;exitY=0.861;exitDx=0;exitDy=0;fontSize=12;exitPerimeter=0;" edge="1" parent="1" source="i6ZfzEf9qO1Lxu_JYFvA-10">
          <mxGeometry relative="1" as="geometry">
            <mxPoint x="301" y="290" as="targetPoint" />
            <Array as="points">
              <mxPoint x="460" y="290" />
            </Array>
          </mxGeometry>
        </mxCell>
        <mxCell id="i6ZfzEf9qO1Lxu_JYFvA-28" style="edgeStyle=orthogonalEdgeStyle;rounded=0;orthogonalLoop=1;jettySize=auto;html=1;exitX=0.298;exitY=0.989;exitDx=0;exitDy=0;entryX=0.554;entryY=-0.001;entryDx=0;entryDy=0;entryPerimeter=0;fontSize=12;exitPerimeter=0;" edge="1" parent="1" source="i6ZfzEf9qO1Lxu_JYFvA-10" target="i6ZfzEf9qO1Lxu_JYFvA-14">
          <mxGeometry relative="1" as="geometry" />
        </mxCell>
        <mxCell id="i6ZfzEf9qO1Lxu_JYFvA-33" style="edgeStyle=orthogonalEdgeStyle;rounded=0;orthogonalLoop=1;jettySize=auto;html=1;exitX=0.825;exitY=0.993;exitDx=0;exitDy=0;entryX=0.593;entryY=-0.01;entryDx=0;entryDy=0;entryPerimeter=0;fontSize=12;exitPerimeter=0;" edge="1" parent="1" source="i6ZfzEf9qO1Lxu_JYFvA-10" target="i6ZfzEf9qO1Lxu_JYFvA-17">
          <mxGeometry relative="1" as="geometry" />
        </mxCell>
        <mxCell id="i6ZfzEf9qO1Lxu_JYFvA-10" value="" style="rounded=0;whiteSpace=wrap;html=1;" vertex="1" parent="1">
          <mxGeometry x="460" y="120" width="340" height="200" as="geometry" />
        </mxCell>
        <mxCell id="i6ZfzEf9qO1Lxu_JYFvA-11" value="" style="shape=mxgraph.cisco.misc.page_icon;html=1;pointerEvents=1;dashed=0;fillColor=#dae8fc;strokeColor=#6c8ebf;strokeWidth=2;verticalLabelPosition=bottom;verticalAlign=top;align=center;outlineConnect=0;direction=south;" vertex="1" parent="1">
          <mxGeometry x="635" y="135" width="140" height="150" as="geometry" />
        </mxCell>
        <mxCell id="i6ZfzEf9qO1Lxu_JYFvA-29" style="edgeStyle=orthogonalEdgeStyle;rounded=0;orthogonalLoop=1;jettySize=auto;html=1;exitX=0.25;exitY=0;exitDx=0;exitDy=0;exitPerimeter=0;entryX=0.182;entryY=1.005;entryDx=0;entryDy=0;entryPerimeter=0;fontSize=12;" edge="1" parent="1" source="i6ZfzEf9qO1Lxu_JYFvA-14" target="i6ZfzEf9qO1Lxu_JYFvA-10">
          <mxGeometry relative="1" as="geometry" />
        </mxCell>
        <mxCell id="i6ZfzEf9qO1Lxu_JYFvA-14" value="" style="strokeWidth=2;html=1;shape=mxgraph.flowchart.document2;whiteSpace=wrap;size=0.25;" vertex="1" parent="1">
          <mxGeometry x="490" y="367.5" width="130" height="105" as="geometry" />
        </mxCell>
        <mxCell id="i6ZfzEf9qO1Lxu_JYFvA-15" value="" style="strokeWidth=2;html=1;shape=mxgraph.flowchart.document2;whiteSpace=wrap;size=0.25;" vertex="1" parent="1">
          <mxGeometry x="480" y="377.5" width="130" height="105" as="geometry" />
        </mxCell>
        <mxCell id="i6ZfzEf9qO1Lxu_JYFvA-16" value="&lt;span style=&quot;font-size: 16px;&quot;&gt;&lt;b&gt;File System&lt;br&gt;&lt;br&gt;&lt;/b&gt;&lt;/span&gt;HTML / CSS / Images / Videos / Audio files&lt;br&gt;&lt;span style=&quot;font-size: 16px;&quot;&gt;&lt;b&gt;&lt;br&gt;&lt;/b&gt;&lt;/span&gt;" style="strokeWidth=2;html=1;shape=mxgraph.flowchart.document2;whiteSpace=wrap;size=0.25;" vertex="1" parent="1">
          <mxGeometry x="470" y="390.5" width="130" height="105" as="geometry" />
        </mxCell>
        <mxCell id="i6ZfzEf9qO1Lxu_JYFvA-30" style="edgeStyle=orthogonalEdgeStyle;rounded=0;orthogonalLoop=1;jettySize=auto;html=1;exitX=0.373;exitY=0.001;exitDx=0;exitDy=0;exitPerimeter=0;entryX=0.75;entryY=1;entryDx=0;entryDy=0;fontSize=12;" edge="1" parent="1" source="i6ZfzEf9qO1Lxu_JYFvA-17" target="i6ZfzEf9qO1Lxu_JYFvA-10">
          <mxGeometry relative="1" as="geometry" />
        </mxCell>
        <mxCell id="i6ZfzEf9qO1Lxu_JYFvA-17" value="&lt;span style=&quot;border-color: var(--border-color); font-size: 16px;&quot;&gt;&lt;b style=&quot;border-color: var(--border-color);&quot;&gt;Database&lt;br style=&quot;border-color: var(--border-color);&quot;&gt;&lt;br style=&quot;border-color: var(--border-color);&quot;&gt;&lt;/b&gt;&lt;/span&gt;MySQL / Oracle / MongoDB / CouchBase" style="shape=cylinder3;whiteSpace=wrap;html=1;boundedLbl=1;backgroundOutline=1;size=15;" vertex="1" parent="1">
          <mxGeometry x="670" y="360" width="120" height="140" as="geometry" />
        </mxCell>
        <mxCell id="i6ZfzEf9qO1Lxu_JYFvA-34" value="&lt;b style=&quot;border-color: var(--border-color); text-align: left; background-color: initial; font-size: 16px;&quot;&gt;&lt;div style=&quot;border-color: var(--border-color); text-align: center;&quot;&gt;Web Server&lt;/div&gt;&lt;/b&gt;" style="text;html=1;align=center;verticalAlign=middle;resizable=0;points=[];autosize=1;strokeColor=none;fillColor=none;fontSize=12;" vertex="1" parent="1">
          <mxGeometry x="500" y="205" width="110" height="30" as="geometry" />
        </mxCell>
        <mxCell id="i6ZfzEf9qO1Lxu_JYFvA-36" value="&lt;span style=&quot;font-size: 16px; font-weight: 700;&quot;&gt;Application&lt;br&gt;&lt;div style=&quot;&quot;&gt;&lt;span style=&quot;background-color: initial;&quot;&gt;Logic&lt;/span&gt;&lt;/div&gt;&lt;/span&gt;" style="text;html=1;strokeColor=none;fillColor=none;align=center;verticalAlign=middle;whiteSpace=wrap;rounded=0;fontSize=12;" vertex="1" parent="1">
          <mxGeometry x="655" y="150" width="100" height="30" as="geometry" />
        </mxCell>
        <mxCell id="i6ZfzEf9qO1Lxu_JYFvA-37" value="PHP / Python / JavaScript / Java" style="text;html=1;strokeColor=none;fillColor=none;align=center;verticalAlign=middle;whiteSpace=wrap;rounded=0;fontSize=12;" vertex="1" parent="1">
          <mxGeometry x="645" y="205" width="120" height="30" as="geometry" />
        </mxCell>
        <mxCell id="i6ZfzEf9qO1Lxu_JYFvA-39" style="edgeStyle=orthogonalEdgeStyle;rounded=0;orthogonalLoop=1;jettySize=auto;html=1;exitX=0.5;exitY=1;exitDx=0;exitDy=0;fontSize=12;" edge="1" parent="1" source="i6ZfzEf9qO1Lxu_JYFvA-36" target="i6ZfzEf9qO1Lxu_JYFvA-36">
          <mxGeometry relative="1" as="geometry" />
        </mxCell>
        <mxCell id="i6ZfzEf9qO1Lxu_JYFvA-44" value="&lt;b style=&quot;border-color: var(--border-color); text-align: left; background-color: initial; font-size: 16px;&quot;&gt;&lt;div style=&quot;border-color: var(--border-color); text-align: center;&quot;&gt;Back End&lt;/div&gt;&lt;/b&gt;" style="text;html=1;align=center;verticalAlign=middle;resizable=0;points=[];autosize=1;strokeColor=none;fillColor=none;fontSize=12;" vertex="1" parent="1">
          <mxGeometry x="580" y="500" width="100" height="30" as="geometry" />
        </mxCell>
        <mxCell id="i6ZfzEf9qO1Lxu_JYFvA-46" value="&lt;b style=&quot;border-color: var(--border-color); text-align: left; background-color: initial; font-size: 16px;&quot;&gt;&lt;div style=&quot;border-color: var(--border-color); text-align: center;&quot;&gt;Your App&lt;/div&gt;&lt;/b&gt;" style="text;html=1;align=center;verticalAlign=middle;resizable=0;points=[];autosize=1;strokeColor=none;fillColor=none;fontSize=12;" vertex="1" parent="1">
          <mxGeometry x="260" y="410" width="90" height="30" as="geometry" />
        </mxCell>
      </root>
    </mxGraphModel>
  </diagram>
</mxfile>
